# xmcd CD database file
#
# Track frame offsets:
#	187
#	31397
#	55267
#	79497
#	97937
#	116242
#	137720
#	152700
#	168800
#	185520
#	211500
#
# Disc length: 3121 seconds
#
# Revision: 0
# Processed by: cddbd v1.5.1PL0 Copyright (c) Steve Scherf et al.
# Submitted via: CDex 1.51
#
DISCID=8c0c2f0b
DTITLE=坂本真綾 - グレープフルーツ
DYEAR=1997
DGENRE=Pop
TTITLE0=Feel Myself
TTITLE1=I and I
TTITLE2=グレープフルーツ
TTITLE3=右ほっぺのニキビ
TTITLE4=ポケットを空にして
TTITLE5=オレンジ色とゆびきり
TTITLE6=青い瞳(REMIX)
TTITLE7=約束はいらない
TTITLE8=MY BEST FRIEND
TTITLE9=風が吹く日(ma-aya version)
TTITLE10=そのままでいいんだ
EXTD=YEAR: 1997
EXTT0=
EXTT1=
EXTT2=
EXTT3=
EXTT4=
EXTT5=
EXTT6=
EXTT7=
EXTT8=
EXTT9=
EXTT10=
PLAYORDER=
